HIERARCHY
ROOT Hips
{
	OFFSET 0.000000 0.000000 0.000000
	CHANNELS 6 Xposition Yposition Zposition Zrotation Yrotation Xrotation 
	JOINT LHipJoint
	{
		OFFSET 0.000000 0.000000 0.000000
		CHANNELS 3 Zrotation Yrotation Xrotation
		JOINT LeftUpLeg
		{
			OFFSET 1.363060 -1.794630 0.839290
			CHANNELS 3 Zrotation Yrotation Xrotation
			JOINT LeftLeg
			{
				OFFSET 2.448110 -6.726130 0.000000
				CHANNELS 3 Zrotation Yrotation Xrotation
				JOINT LeftFoot
				{
					OFFSET 2.562200 -7.039590 0.000000
					CHANNELS 3 Zrotation Yrotation Xrotation
					JOINT LeftToeBase
					{
						OFFSET 0.157640 -0.433110 2.322550
						CHANNELS 3 Zrotation Yrotation Xrotation
						End Site
						{
							OFFSET 0.000000 0.000000 0.000000
						}
					}
				}
			}
		}
	}
	JOINT RHipJoint
	{
		OFFSET 0.000000 0.000000 0.000000
		CHANNELS 3 Zrotation Yrotation Xrotation
		JOINT RightUpLeg
		{
			OFFSET -1.305520 -1.794630 0.839290
			CHANNELS 3 Zrotation Yrotation Xrotation
			JOINT RightLeg
			{
				OFFSET -2.542530 -6.985550 0.000000
				CHANNELS 3 Zrotation Yrotation Xrotation
				JOINT RightFoot
				{
					OFFSET -2.568260 -7.056230 0.000000
					CHANNELS 3 Zrotation Yrotation Xrotation
					JOINT RightToeBase
					{
						OFFSET -0.164730 -0.452590 2.363150
						CHANNELS 3 Zrotation Yrotation Xrotation
						End Site
						{
							OFFSET 0.000000 0.000000 0.000000
						}
					}
				}
			}
		}
	}
	JOINT LowerBack
	{
		OFFSET 0.000000 0.000000 0.000000
		CHANNELS 3 Zrotation Yrotation Xrotation
		JOINT Spine
		{
			OFFSET 0.028270 2.035590 -0.193380
			CHANNELS 3 Zrotation Yrotation Xrotation
			JOINT Spine1
			{
				OFFSET 0.056720 2.048850 -0.042750
				CHANNELS 3 Zrotation Yrotation Xrotation
				JOINT Neck
				{
					OFFSET 0.000000 0.000000 0.000000
					CHANNELS 3 Zrotation Yrotation Xrotation
					JOINT Neck1
					{
						OFFSET -0.054170 1.746240 0.172020
						CHANNELS 3 Zrotation Yrotation Xrotation
						JOINT Head
						{
							OFFSET 0.104070 1.761360 -0.123970
							CHANNELS 3 Zrotation Yrotation Xrotation
							End Site
							{
								OFFSET 0.000000 0.000000 0.000000
							}
						}
					}
				}
				JOINT LeftShoulder
				{
					OFFSET 0.000000 0.000000 0.000000
					CHANNELS 3 Zrotation Yrotation Xrotation
					JOINT LeftArm
					{
						OFFSET 3.362410 1.200890 -0.311210
						CHANNELS 3 Zrotation Yrotation Xrotation
						JOINT LeftForeArm
						{
							OFFSET 4.983000 -0.000000 -0.000000
							CHANNELS 3 Zrotation Yrotation Xrotation
							JOINT LeftHand
							{
								OFFSET 3.483560 -0.000000 -0.000000
								CHANNELS 3 Zrotation Yrotation Xrotation
								JOINT LeftFingerBase
								{
									OFFSET 0.000000 0.000000 0.000000
									CHANNELS 3 Zrotation Yrotation Xrotation
									JOINT LeftHandIndex1
									{
										OFFSET 0.715260 -0.000000 -0.000000
										CHANNELS 3 Zrotation Yrotation Xrotation
										End Site
										{
											OFFSET 0.000000 0.000000 0.000000
										}
									}
								}
								JOINT LThumb
								{
									OFFSET 0.000000 0.000000 0.000000
									CHANNELS 3 Zrotation Yrotation Xrotation
									End Site
									{
										OFFSET 0.000000 0.000000 0.000000
									}
								}
							}
						}
					}
				}
				JOINT RightShoulder
				{
					OFFSET 0.000000 0.000000 0.000000
					CHANNELS 3 Zrotation Yrotation Xrotation
					JOINT RightArm
					{
						OFFSET -3.136600 1.374050 -0.404650
						CHANNELS 3 Zrotation Yrotation Xrotation
						JOINT RightForeArm
						{
							OFFSET -5.241900 -0.000000 -0.000000
							CHANNELS 3 Zrotation Yrotation Xrotation
							JOINT RightHand
							{
								OFFSET -3.444170 -0.000000 -0.000000
								CHANNELS 3 Zrotation Yrotation Xrotation
								JOINT RightFingerBase
								{
									OFFSET 0.000000 0.000000 0.000000
									CHANNELS 3 Zrotation Yrotation Xrotation
									JOINT RightHandIndex1
									{
										OFFSET -0.622530 -0.000000 -0.000000
										CHANNELS 3 Zrotation Yrotation Xrotation
										End Site
										{
											OFFSET 0.000000 0.000000 0.000000
										}
									}
								}
								JOINT RThumb
								{
									OFFSET 0.000000 0.000000 0.000000
									CHANNELS 3 Zrotation Yrotation Xrotation
									End Site
									{
										OFFSET 0.000000 0.000000 0.000000
									}
								}
							}
						}
					}
				}
			}
		}
	}
}
MOTION
Frames: 7
Frame Time: 0.008333
-10.092424 17.327459 1.639605 -8.082946 56.080798 -5.287255 3.469340 1.637951 -0.662405 -12.203029 -13.783394 -4.573011 -1.597955 8.266173 22.892317 -2.906686 16.385654 -15.155662 2.888300 -10.512000 -30.651100 -8.344422 -1.287991 -1.518928 33.185390 31.957514 9.414177 3.046385 -6.273127 19.116379 0.051180 -31.127808 -48.276076 -4.557600 -12.867500 38.874600 1.609649 0.523846 4.253967 1.324165 1.034804 -4.086705 -0.862728 0.045339 -1.438338 -1.064780 1.222520 -21.093690 5.184563 1.634321 10.397445 0.369800 0.993900 12.018800 2.613516 -1.741308 -0.782486 -87.324147 0.231174 32.581226 18.286898 -26.604756 -5.917039 0.783731 -2.762497 -52.894023 44.395243 52.831385 39.981700 -7.125000 0.000000 0.000000 179.051200 3.082500 0.896600 -2.603422 1.392685 -0.874052 78.843023 -2.915689 -2.391963 -1.774816 5.540316 -0.079907 0.561581 -0.877316 28.442772 -21.559055 15.246403 -6.381300 7.125000 0.000000 0.000000 3.485900 -13.097300 2.610300 
-10.093524 17.499486 1.648602 -7.638031 56.011265 -4.944231 3.514800 1.599509 -0.722328 -12.484954 -15.074682 -5.158896 -1.203443 9.062627 24.976041 -2.780817 15.733738 -13.707200 1.923500 -8.704900 -24.876600 -8.297890 -1.452711 -1.542669 32.657622 31.079715 11.886273 3.776937 -4.130391 13.986978 1.510885 -33.496486 -46.547296 -4.556300 -12.866000 38.868800 1.422705 0.545134 4.371225 1.301984 1.046897 -4.090793 -0.822667 0.073295 -1.493372 -1.109989 1.120782 -20.951576 5.315877 1.505289 10.366497 0.437300 0.952400 11.959200 2.623173 -1.709943 -0.785954 -87.449606 0.321856 35.244007 18.895840 -27.325409 -6.195694 0.662745 -2.735805 -49.941103 42.345306 52.952496 37.987200 -7.125000 0.000000 0.000000 178.304500 2.400700 1.623700 -2.632027 1.427506 -0.864533 79.113710 -2.527921 -2.425730 -1.799010 5.619148 -0.085935 0.480445 -0.910942 29.158806 -20.264899 16.552376 -6.465600 7.125000 0.000000 0.000000 4.465900 -11.817900 3.467400 
-10.108317 17.502485 1.649001 -7.519338 56.042324 -4.839862 3.518409 1.593483 -0.727601 -12.496555 -15.031571 -5.397265 -1.150600 9.177213 25.268178 -2.743198 15.598554 -13.724255 1.964800 -8.792400 -25.148100 -8.296851 -1.488481 -1.555911 32.501880 30.841999 12.413351 3.932041 -3.603575 12.731268 1.923789 -34.128438 -46.040511 -4.537200 -12.842800 38.782900 1.436010 0.542701 4.471791 1.293656 1.046999 -4.087039 -0.821106 0.075989 -1.534740 -1.215071 0.977519 -20.862950 5.476858 1.344176 10.370612 0.538500 0.895600 11.935200 2.629542 -1.692525 -0.786183 -87.567909 0.305707 37.780018 19.504803 -28.027226 -6.481431 0.538922 -2.713805 -46.719235 40.710038 53.218157 36.464700 -7.125000 0.000000 0.000000 177.628200 2.043800 2.287600 -2.663987 1.452337 -0.863721 79.313038 -2.414366 -2.493501 -1.988356 5.989990 -0.110486 0.410043 -0.929292 29.986122 -19.186477 17.471044 -6.424100 7.125000 0.000000 0.000000 5.263900 -10.953100 4.186000 
-10.125410 17.506883 1.651400 -7.511252 56.069785 -4.823520 3.527890 1.591569 -0.729384 -12.424810 -15.049801 -5.733881 -1.063697 9.358697 25.740852 -2.700603 15.450722 -13.794383 2.054700 -8.979100 -25.730000 -8.311303 -1.548757 -1.577739 32.374393 30.442093 13.398745 4.184965 -2.659522 10.497858 2.659634 -35.281055 -45.194675 -4.489500 -12.784700 38.567900 1.499618 0.543646 4.607894 1.289979 1.053967 -4.094880 -0.823903 0.083786 -1.607934 -1.331456 0.822148 -20.855548 5.614203 1.179069 10.477659 0.636500 0.835100 12.005600 2.638755 -1.674740 -0.791327 -87.630694 0.245816 40.107983 20.202312 -28.815307 -6.824588 0.438446 -2.695337 -43.916962 39.800138 53.633506 35.697300 -7.125000 0.000000 0.000000 177.136900 2.096400 2.759900 -2.698229 1.485340 -0.873941 79.581405 -2.500185 -2.574760 -2.330745 6.634438 -0.155600 0.327993 -0.947461 31.011763 -18.013808 18.552319 -6.363400 7.125000 0.000000 0.000000 6.127800 -9.936600 5.008000 
-10.138605 17.510781 1.656298 -7.449191 56.152299 -4.737938 3.525897 1.587120 -0.733205 -12.408119 -15.115089 -5.748643 -1.081378 9.329509 25.641704 -2.721596 15.506671 -13.670068 2.117600 -9.106800 -26.129900 -8.315233 -1.543818 -1.579838 32.332981 30.407206 13.263381 4.179360 -2.696482 10.568783 2.705710 -35.353099 -45.143756 -4.449200 -12.735300 38.385400 1.517117 0.531931 4.666591 1.284719 1.042819 -4.092142 -0.836162 0.076818 -1.612618 -1.338211 0.690019 -20.906949 5.612315 1.006200 10.557149 0.619900 0.761900 12.077700 2.664347 -1.675251 -0.787918 -87.630582 0.123173 42.310432 20.971043 -29.672366 -7.216586 0.353621 -2.665950 -41.302557 38.695058 54.115157 34.760900 -7.125000 0.000000 0.000000 176.558100 2.158700 3.315800 -2.730330 1.496081 -0.892220 79.930403 -2.673609 -2.641840 -2.880387 7.644344 -0.234470 0.231221 -0.969581 32.439823 -16.846697 19.929238 -6.346200 7.125000 0.000000 0.000000 6.996100 -8.619800 5.914000 
-10.149300 17.513280 1.663295 -7.352706 56.151552 -4.634674 3.524678 1.583368 -0.738009 -12.421514 -15.157290 -5.730633 -1.096314 9.307311 25.571781 -2.734764 15.557549 -13.655528 2.100800 -9.073000 -26.023800 -8.317017 -1.540748 -1.581519 32.300868 30.437365 13.197417 4.175253 -2.718836 10.610282 2.734432 -35.388150 -45.098408 -4.431900 -12.713900 38.306800 1.506505 0.553565 4.705314 1.279236 1.072247 -4.078217 -0.858448 0.091623 -1.570738 -1.207032 0.605531 -21.017453 5.498948 0.848624 10.630419 0.502700 0.693600 12.165400 2.697202 -1.683587 -0.778706 -87.604972 0.033748 45.378633 21.548689 -30.307904 -7.505014 0.150099 -2.623715 -35.562906 36.694444 54.805058 33.025100 -7.125000 0.000000 0.000000 175.601600 2.162200 4.242000 -2.752330 1.492303 -0.920586 80.221708 -3.006492 -2.696593 -3.667315 9.046650 -0.366988 0.135605 -0.963673 34.196946 -15.583071 20.742430 -6.070800 7.125000 0.000000 0.000000 7.886300 -7.927400 6.789600 
-10.161895 17.515479 1.670292 -7.304969 56.061016 -4.522367 3.526029 1.574623 -0.747473 -12.379910 -15.141226 -5.780894 -1.107091 9.290201 25.512164 -2.763971 15.656221 -13.595986 2.170800 -9.213100 -26.464200 -8.317600 -1.527957 -1.574398 32.290740 30.584968 13.082525 4.170817 -2.747329 10.648619 2.718067 -35.361492 -45.119208 -4.471600 -12.762900 38.487100 1.525226 0.595767 4.722125 1.274966 1.130172 -4.074196 -0.878494 0.120435 -1.591200 -1.108087 0.561298 -20.948863 5.450675 0.747211 10.594345 0.432600 0.652400 12.131400 2.746109 -1.706769 -0.764085 -87.699036 -0.332238 46.275308 22.581100 -31.410068 -8.074325 0.175282 -2.585593 -35.138208 35.724743 55.462909 32.267600 -7.125000 0.000000 0.000000 175.019400 2.476100 4.779100 -2.784728 1.501038 -0.951518 80.559964 -3.264857 6.664802 -4.593003 10.679609 -0.527068 0.248868 -0.901667 26.521769 -15.279117 20.498279 -5.870900 7.125000 0.000000 0.000000 8.083800 -8.239900 6.912800 
